<svg width="18" height="26" viewBox="0 0 18 26" fill="none" xmlns="http://www.w3.org/2000/svg">
<g id="Logo">
<path id="Path 3238" d="M17.6154 6.68871C17.6154 6.8097 17.6014 6.93027 17.5947 7.05107C17.5898 10.2127 17.5853 13.3746 17.5814 16.5369C17.5797 17.4549 17.5828 18.3729 17.5543 19.2909C17.5611 19.5189 17.5124 19.7453 17.4123 19.9509C17.3122 20.1564 17.1636 20.3352 16.9791 20.472C16.8331 20.5644 16.6745 20.6357 16.5082 20.6838C16.3705 20.7309 16.3467 20.7017 16.3474 20.5558C16.3514 19.5185 16.3586 18.4814 16.3598 17.4443C16.3636 13.6602 16.3657 9.87611 16.3662 6.09213C16.3662 5.35374 15.9837 4.8166 15.3988 4.39739C15.1337 4.22357 14.8421 4.093 14.5352 4.01066C13.3183 3.62683 12.1019 3.24159 10.8858 2.85494C10.3514 2.68617 9.81739 2.51647 9.2796 2.35876C8.85255 2.20004 8.38867 2.16484 7.94216 2.2573C7.70122 2.32635 7.46883 2.42181 7.24929 2.54188C6.14066 3.13222 5.03727 3.73267 3.93268 4.33078C3.6337 4.49248 3.32758 4.6436 3.03954 4.82296C2.83854 4.93279 2.66357 5.08386 2.52635 5.26605C2.38914 5.44824 2.29285 5.65733 2.24392 5.87934C2.23428 5.93215 2.22974 5.98575 2.23037 6.03941V20.3882C2.2223 20.6353 2.2871 20.8793 2.41684 21.0906C2.50656 21.2314 2.6452 21.335 2.80668 21.3817C4.1515 21.7977 5.49616 22.2144 6.84066 22.6316C7.83727 22.9407 8.83054 23.261 9.83308 23.5496C10.5464 23.6794 11.2826 23.5273 11.8839 23.1259C12.078 22.9794 12.2364 22.7915 12.347 22.5762C12.4577 22.3608 12.5179 22.1235 12.5232 21.8819C12.551 20.8265 12.5453 19.7701 12.5508 18.7139C12.5539 18.0954 12.5394 17.4765 12.5555 16.8584C12.5635 16.4931 12.4975 16.13 12.3612 15.7904C12.225 15.4508 12.0213 15.1416 11.7623 14.8812C11.5173 14.6188 11.2455 14.3826 10.9516 14.1761C10.8438 14.1004 10.8645 13.9321 10.9883 13.8872C11.4061 13.7537 11.793 13.5395 12.1267 13.2571C12.2617 13.1438 12.3699 13.0024 12.4436 12.8431C12.5172 12.6838 12.5546 12.5103 12.5529 12.3351C12.5496 11.1519 12.5529 9.96861 12.5513 8.78535C12.5707 8.4345 12.467 8.08778 12.2578 7.80388C12.0486 7.51997 11.7467 7.31632 11.4031 7.22737C10.4365 6.92491 9.46727 6.63162 8.49873 6.33504C7.64135 6.07251 6.78373 5.81053 5.92588 5.54911C5.81294 5.51469 5.7643 5.3804 5.83353 5.28475C6.119 4.89036 6.46975 4.60745 6.9779 4.52567C7.24442 4.49795 7.51376 4.53462 7.76282 4.63253C8.84195 4.97642 9.92181 5.31843 10.9976 5.67009C11.4417 5.81509 11.8881 5.96031 12.3153 6.14626C12.7282 6.3287 13.0932 6.6025 13.3823 6.94656C13.6777 7.27302 13.841 7.69585 13.8409 8.13405C13.8369 9.07558 13.839 10.0171 13.835 10.9586C13.8319 11.6502 13.8112 12.3417 13.8207 13.0328C13.8279 13.2544 13.7756 13.4739 13.6692 13.6691C13.5629 13.8642 13.4062 14.028 13.2151 14.1438C13.1972 14.156 13.1792 14.1679 13.1603 14.1803C13.1139 14.2107 13.1079 14.2787 13.1516 14.3128C13.3342 14.4537 13.4852 14.6307 13.5951 14.8324C13.7049 15.0342 13.7711 15.2563 13.7895 15.4848C13.8077 15.6756 13.8156 15.8674 13.8133 16.0591C13.8147 17.9991 13.8193 19.9391 13.8107 21.8793C13.8215 22.4692 13.6902 23.0532 13.4275 23.5828C13.2586 23.9128 13.0171 24.2011 12.7207 24.4266C12.4243 24.6521 12.0807 24.8089 11.715 24.8856C11.1839 25.0212 10.6288 25.0365 10.0909 24.9303C9.71185 24.837 9.33786 24.7246 8.97039 24.5935C7.86374 24.2469 6.75741 23.8994 5.6514 23.551C4.78847 23.2794 3.92586 23.007 3.06356 22.7338C2.8093 22.6533 2.55646 22.569 2.30053 22.4927C2.03909 22.4162 1.80004 22.2786 1.60352 22.0916C1.40699 21.9045 1.25873 21.6735 1.17121 21.418C1.05276 21.0922 0.997246 20.7472 1.00757 20.4011C1.00424 19.6635 1.00519 18.9258 1.00519 18.1886V8.23198C1.00519 7.45993 0.985683 6.6867 1.02231 5.91606C1.03451 5.48108 1.15856 5.05636 1.38276 4.68202C1.60696 4.30769 1.9239 3.9961 2.30363 3.77669C2.84189 3.44716 3.42153 3.18259 3.98691 2.89566C4.98946 2.38582 5.99486 1.8814 6.9986 1.37392C7.56285 1.0568 8.21836 0.936364 8.86003 1.03191C9.10913 1.08574 9.3544 1.15565 9.59428 1.24117C10.4089 1.49821 11.2219 1.76136 12.0368 2.01792C12.7373 2.23847 13.4401 2.45314 14.1413 2.6704C14.651 2.8281 15.1717 2.95804 15.6678 3.14987C16.095 3.29655 16.4812 3.5409 16.7949 3.86307C17.1087 4.18524 17.3412 4.57612 17.4736 5.00396C17.5237 5.20444 17.561 5.40781 17.5854 5.61289C17.6039 5.71696 17.6154 5.82217 17.6154 5.92786V6.68871Z" fill="#FF6F21" stroke="#FF6F21" strokeWidth="0.5" strokeLinecap="round"/>
</g>
</svg>
